<svg xmlns="http://www.w3.org/2000/svg" width="32" height="32" viewBox="0 0 128 128"><defs><filter id="sh" x="-20%" y="-20%" width="140%" height="150%"><feGaussianBlur in="SourceAlpha" stdDeviation="3.2"/><feOffset dy="4"/><feComponentTransfer><feFuncA type="linear" slope=".3"/></feComponentTransfer><feMerge><feMergeNode/><feMergeNode in="SourceGraphic"/></feMerge></filter><radialGradient id="sol"><stop offset="0" stop-opacity="0"/><stop offset="1" stop-opacity="0"/></radialGradient><linearGradient id="hl" x1="0" y1="0" x2="0" y2="1"><stop offset="0" stop-color="#fff" stop-opacity=".45"/><stop offset=".063" stop-color="#fff" stop-opacity=".2"/><stop offset=".95" stop-color="#fff" stop-opacity=".157"/><stop offset="1" stop-color="#fff" stop-opacity=".392"/></linearGradient><linearGradient id="bk" x1="0" y1="0" x2="1" y2="1"><stop offset="0" stop-color="#f2c811"/><stop offset="1" stop-color="#c08a00"/></linearGradient><linearGradient id="bks" x1="0" y1="0" x2="0" y2="1"><stop offset="0" stop-color="#c08a00" stop-opacity="1"/><stop offset="1" stop-color="#8a5d00" stop-opacity="1"/></linearGradient><linearGradient id="pp" x1="0" y1="0" x2="0" y2="1"><stop offset="0" stop-color="#ffffff" stop-opacity="1"/><stop offset="1" stop-color="#e8e8e8" stop-opacity="1"/></linearGradient><linearGradient id="pps" x1="0" y1="0" x2="0" y2="1"><stop offset="0" stop-color="#000" stop-opacity="0.1"/><stop offset="1" stop-color="#000" stop-opacity="0.16"/></linearGradient><linearGradient id="ac" x1="0" y1="0" x2="0" y2="1"><stop offset="0" stop-color="#f2c811" stop-opacity="1"/><stop offset="1" stop-color="#c08a00" stop-opacity="1"/></linearGradient></defs><rect x="40" y="16" width="76" height="88" rx="10" fill="#c08a00"/><rect x="40" y="12" width="76" height="88" rx="10" fill="url(#bk)"/><rect x="42" y="14" width="72" height="84" rx="8" fill="none" stroke="url(#bks)" stroke-width="4" opacity="0.2"/><rect x="46" y="18" width="64" height="76" rx="4" fill="none" stroke="url(#hl)" stroke-width="4" opacity=".9"/><rect x="80" y="24" width="28" height="12" rx="2.5" fill="#fff" opacity=".55"/><rect x="80" y="40" width="12" height="16" rx="2.5" fill="#fff" opacity=".85"/><rect x="96" y="40" width="12" height="16" rx="2.5" fill="#fff" opacity=".45"/><rect x="8" y="44" width="80" height="72" rx="6" fill="#c3c7cb"/><rect x="8" y="40" width="80" height="72" rx="6" fill="url(#pp)"/><rect x="10" y="42" width="76" height="68" rx="4" fill="none" stroke="url(#pps)" stroke-width="4" opacity="1"/><rect x="14" y="46" width="68" height="60" rx="0" fill="none" stroke="url(#hl)" stroke-width="4" opacity=".9"/><rect x="20" y="88" width="12" height="16" rx="2" fill="#e8b100"/><rect x="36" y="76" width="8" height="28" rx="0" fill="#e8b100"/><rect x="48" y="80" width="12" height="24" rx="2" fill="#e8b100"/><rect x="64" y="64" width="12" height="40" rx="2" fill="#c08a00"/><polyline points="25,78 40,66 55,72 70,52" fill="none" stroke="#485a6c" stroke-width="4" stroke-linejoin="round" stroke-linecap="round"/><circle cx="26" cy="78" r="4" fill="#fff" stroke="#485a6c" stroke-width="4"/><circle cx="42" cy="66" r="4" fill="#fff" stroke="#485a6c" stroke-width="4"/><circle cx="54" cy="74" r="4" fill="#fff" stroke="#485a6c" stroke-width="4"/><circle cx="70" cy="54" r="4" fill="#fff" stroke="#485a6c" stroke-width="4"/></svg>
