<svg xmlns="http://www.w3.org/2000/svg" width="128" height="128" viewBox="0 0 128 128"><defs><filter id="sh" x="-20%" y="-20%" width="140%" height="150%"><feGaussianBlur in="SourceAlpha" stdDeviation="1"/><feOffset dy="1"/><feComponentTransfer><feFuncA type="linear" slope=".3"/></feComponentTransfer><feMerge><feMergeNode/><feMergeNode in="SourceGraphic"/></feMerge></filter><radialGradient id="sol"><stop offset="0" stop-opacity="0"/><stop offset="1" stop-opacity="0"/></radialGradient><linearGradient id="hl" x1="0" y1="0" x2="0" y2="1"><stop offset="0" stop-color="#fff" stop-opacity=".45"/><stop offset=".063" stop-color="#fff" stop-opacity=".2"/><stop offset=".95" stop-color="#fff" stop-opacity=".157"/><stop offset="1" stop-color="#fff" stop-opacity=".392"/></linearGradient><linearGradient id="bk" x1="0" y1="0" x2="1" y2="1"><stop offset="0" stop-color="#33c481"/><stop offset="1" stop-color="#107c41"/></linearGradient><linearGradient id="bks" x1="0" y1="0" x2="0" y2="1"><stop offset="0" stop-color="#107c41" stop-opacity="1"/><stop offset="1" stop-color="#185c37" stop-opacity="1"/></linearGradient><linearGradient id="pp" x1="0" y1="0" x2="0" y2="1"><stop offset="0" stop-color="#ffffff" stop-opacity="1"/><stop offset="1" stop-color="#e8e8e8" stop-opacity="1"/></linearGradient><linearGradient id="pps" x1="0" y1="0" x2="0" y2="1"><stop offset="0" stop-color="#000" stop-opacity="0.1"/><stop offset="1" stop-color="#000" stop-opacity="0.16"/></linearGradient><linearGradient id="ac" x1="0" y1="0" x2="0" y2="1"><stop offset="0" stop-color="#33c481" stop-opacity="1"/><stop offset="1" stop-color="#107c41" stop-opacity="1"/></linearGradient></defs><rect x="40" y="13" width="76" height="88" rx="10" fill="#107c41"/><rect x="40" y="12" width="76" height="88" rx="10" fill="url(#bk)"/><rect x="40.5" y="12.5" width="75" height="87" rx="9.5" fill="none" stroke="url(#bks)" stroke-width="1" opacity="0.2"/><rect x="41.5" y="13.5" width="73" height="85" rx="8.5" fill="none" stroke="url(#hl)" stroke-width="1" opacity=".9"/><g transform="translate(0,1)" opacity=".16"><rect x="88" y="24" width="20" height="7" rx="2" fill="#000" opacity=".8"/></g><rect x="88" y="24" width="20" height="7" rx="2" fill="#fff" opacity=".8"/><g transform="translate(0,1)" opacity=".16"><rect x="88" y="36" width="20" height="7" rx="2" fill="#000" opacity=".5"/></g><rect x="88" y="36" width="20" height="7" rx="2" fill="#fff" opacity=".5"/><g transform="translate(0,1)" opacity=".16"><rect x="88" y="48" width="20" height="7" rx="2" fill="#000" opacity=".5"/></g><rect x="88" y="48" width="20" height="7" rx="2" fill="#fff" opacity=".5"/><rect x="12" y="33" width="72" height="82" rx="6" fill="#c3c7cb"/><rect x="12" y="32" width="72" height="82" rx="6" fill="url(#pp)"/><rect x="12.5" y="32.5" width="71" height="81" rx="5.5" fill="none" stroke="url(#pps)" stroke-width="1" opacity="1"/><rect x="13.5" y="33.5" width="69" height="79" rx="4.5" fill="none" stroke="url(#hl)" stroke-width="1" opacity=".9"/><path d="M12.5,38.5 a6,6 0 0 1 6,-6 h59 a6,6 0 0 1 6,6 v8 h-71 z" fill="url(#ac)"/><line x1="34.5" y1="46" x2="34.5" y2="113" stroke="#b8bfc5" stroke-width="1"/><line x1="56.5" y1="46" x2="56.5" y2="113" stroke="#b8bfc5" stroke-width="1"/><line x1="13" y1="63.5" x2="83" y2="63.5" stroke="#b8bfc5" stroke-width="1"/><line x1="13" y1="80.5" x2="83" y2="80.5" stroke="#b8bfc5" stroke-width="1"/><line x1="13" y1="97.5" x2="83" y2="97.5" stroke="#b8bfc5" stroke-width="1"/><rect x="34.5" y="63.5" width="22" height="17" rx="1.5" fill="none" stroke="#107c41" stroke-width="2"/><rect x="54" y="78" width="5" height="5" rx="1" fill="#107c41"/><rect x="18" y="52" width="10" height="4" rx="2" fill="#767e86"/><rect x="40" y="52" width="14" height="4" rx="2" fill="#767e86"/><rect x="62" y="52" width="10" height="4" rx="2" fill="#767e86"/></svg>
