<svg xmlns="http://www.w3.org/2000/svg" width="128" height="128" viewBox="0 0 128 128"><defs><filter id="sh" x="-20%" y="-20%" width="140%" height="150%"><feGaussianBlur in="SourceAlpha" stdDeviation="1"/><feOffset dy="1"/><feComponentTransfer><feFuncA type="linear" slope=".3"/></feComponentTransfer><feMerge><feMergeNode/><feMergeNode in="SourceGraphic"/></feMerge></filter><radialGradient id="sol"><stop offset="0" stop-opacity="0"/><stop offset="1" stop-opacity="0"/></radialGradient><linearGradient id="hl" x1="0" y1="0" x2="0" y2="1"><stop offset="0" stop-color="#fff" stop-opacity=".45"/><stop offset=".063" stop-color="#fff" stop-opacity=".2"/><stop offset=".95" stop-color="#fff" stop-opacity=".157"/><stop offset="1" stop-color="#fff" stop-opacity=".392"/></linearGradient><linearGradient id="bk" x1="0" y1="0" x2="1" y2="1"><stop offset="0" stop-color="#7f9cc6"/><stop offset="1" stop-color="#3b5680"/></linearGradient><linearGradient id="bks" x1="0" y1="0" x2="0" y2="1"><stop offset="0" stop-color="#3b5680" stop-opacity="1"/><stop offset="1" stop-color="#243a5c" stop-opacity="1"/></linearGradient><linearGradient id="pp" x1="0" y1="0" x2="0" y2="1"><stop offset="0" stop-color="#ffffff" stop-opacity="1"/><stop offset="1" stop-color="#e8e8e8" stop-opacity="1"/></linearGradient><linearGradient id="pps" x1="0" y1="0" x2="0" y2="1"><stop offset="0" stop-color="#000" stop-opacity="0.1"/><stop offset="1" stop-color="#000" stop-opacity="0.16"/></linearGradient><linearGradient id="ac" x1="0" y1="0" x2="0" y2="1"><stop offset="0" stop-color="#7f9cc6" stop-opacity="1"/><stop offset="1" stop-color="#3b5680" stop-opacity="1"/></linearGradient></defs><rect x="40" y="13" width="76" height="88" rx="10" fill="#3b5680"/><rect x="40" y="12" width="76" height="88" rx="10" fill="url(#bk)"/><rect x="40.5" y="12.5" width="75" height="87" rx="9.5" fill="none" stroke="url(#bks)" stroke-width="1" opacity="0.2"/><rect x="41.5" y="13.5" width="73" height="85" rx="8.5" fill="none" stroke="url(#hl)" stroke-width="1" opacity=".9"/><rect x="78" y="24" width="8" height="8" rx="1.5" fill="#fff" opacity=".45"/><rect x="89" y="24" width="8" height="8" rx="1.5" fill="#fff" opacity=".45"/><rect x="100" y="24" width="8" height="8" rx="1.5" fill="#fff" opacity=".45"/><rect x="78" y="35" width="8" height="8" rx="1.5" fill="#fff" opacity=".45"/><rect x="89" y="35" width="8" height="8" rx="1.5" fill="#fff" opacity=".95"/><rect x="100" y="35" width="8" height="8" rx="1.5" fill="#fff" opacity=".45"/><rect x="78" y="46" width="8" height="8" rx="1.5" fill="#fff" opacity=".45"/><rect x="89" y="46" width="8" height="8" rx="1.5" fill="#fff" opacity=".45"/><rect x="100" y="46" width="8" height="8" rx="1.5" fill="#fff" opacity=".45"/><rect x="78" y="57" width="8" height="8" rx="1.5" fill="#fff" opacity=".45"/><rect x="89" y="57" width="8" height="8" rx="1.5" fill="#fff" opacity=".45"/><rect x="100" y="57" width="8" height="8" rx="1.5" fill="#fff" opacity=".45"/><rect x="8" y="51" width="82" height="58" rx="6" fill="#c3c7cb"/><rect x="8" y="50" width="82" height="58" rx="6" fill="url(#pp)"/><rect x="8.5" y="50.5" width="81" height="57" rx="5.5" fill="none" stroke="url(#pps)" stroke-width="1" opacity="1"/><rect x="9.5" y="51.5" width="79" height="55" rx="4.5" fill="none" stroke="url(#hl)" stroke-width="1" opacity=".9"/><path d="M10,106 L38,78 M88,106 L60,78" stroke="#b8bfc5" stroke-width="2"/><path d="M9,52 L49,82 L89,52" fill="none" stroke="#56739f" stroke-width="5" stroke-linejoin="round" stroke-linecap="round"/></svg>
