<svg xmlns="http://www.w3.org/2000/svg" width="16" height="16" viewBox="0 0 16 16"><defs><linearGradient id="g1" x1="0" y1="0" x2="0" y2="1"><stop offset="0" stop-color="#64baff"/><stop offset="1" stop-color="#3689e6"/></linearGradient><clipPath id="c2"><path d="M2 1H10L13 4V15H2V1Z"/></clipPath></defs><path d="M2 1H10L13 4V15H2V1Z" fill="#181818" opacity="0.2" transform="translate(0 1)"/><path d="M2 1H10L13 4V15H2V1Z" fill="url(#g1)"/><g clip-path="url(#c2)" fill="none"><path d="M2 1H10L13 4V15H2V1Z" stroke="#fff" stroke-opacity="0.3" stroke-width="4"/><path d="M2 1H10L13 4V15H2V1Z" stroke="#002e99" stroke-opacity="0.7" stroke-width="2"/></g><defs><linearGradient id="g3" x1="0" y1="0" x2="0" y2="1"><stop offset="0" stop-color="#8cd5ff"/><stop offset="1" stop-color="#64baff"/></linearGradient></defs><path d="M10 1V4H13Z" fill="url(#g3)"/><path d="M10.5 1V3.5H13" fill="none" stroke="#002e99" stroke-opacity=".5"/><path d="M4 4h2v1h-2ZM4 6h4v1h-4ZM4 8h7v1h-7ZM4 10h7v1h-7ZM4 12h5v1h-5Z" fill="#fff" opacity=".95"/></svg>
