<svg xmlns="http://www.w3.org/2000/svg" width="24" height="24" viewBox="0 0 24 24"><defs><linearGradient id="g1" x1="0" y1="0" x2="0" y2="1"><stop offset="0" stop-color="#667885"/><stop offset="1" stop-color="#485a6c"/></linearGradient><clipPath id="c2"><path d="M4.5 3H19.5A1.5 1.5 0 0 1 21 4.5V19.5A1.5 1.5 0 0 1 19.5 21H4.5A1.5 1.5 0 0 1 3 19.5V4.5A1.5 1.5 0 0 1 4.5 3Z"/></clipPath></defs><path d="M4.5 3H19.5A1.5 1.5 0 0 1 21 4.5V19.5A1.5 1.5 0 0 1 19.5 21H4.5A1.5 1.5 0 0 1 3 19.5V4.5A1.5 1.5 0 0 1 4.5 3Z" fill="#181818" opacity="0.22" transform="translate(0 1)"/><path d="M4.5 3H19.5A1.5 1.5 0 0 1 21 4.5V19.5A1.5 1.5 0 0 1 19.5 21H4.5A1.5 1.5 0 0 1 3 19.5V4.5A1.5 1.5 0 0 1 4.5 3Z" fill="#181818" opacity="0.1" transform="translate(0 2)"/><path d="M4.5 3H19.5A1.5 1.5 0 0 1 21 4.5V19.5A1.5 1.5 0 0 1 19.5 21H4.5A1.5 1.5 0 0 1 3 19.5V4.5A1.5 1.5 0 0 1 4.5 3Z" fill="#181818" opacity="0.05" transform="translate(0 3)"/><path d="M4.5 3H19.5A1.5 1.5 0 0 1 21 4.5V19.5A1.5 1.5 0 0 1 19.5 21H4.5A1.5 1.5 0 0 1 3 19.5V4.5A1.5 1.5 0 0 1 4.5 3Z" fill="url(#g1)"/><g clip-path="url(#c2)" fill="none"><path d="M4.5 3H19.5A1.5 1.5 0 0 1 21 4.5V19.5A1.5 1.5 0 0 1 19.5 21H4.5A1.5 1.5 0 0 1 3 19.5V4.5A1.5 1.5 0 0 1 4.5 3Z" stroke="#fff" stroke-opacity="0.3" stroke-width="4"/><path d="M4.5 3H19.5A1.5 1.5 0 0 1 21 4.5V19.5A1.5 1.5 0 0 1 19.5 21H4.5A1.5 1.5 0 0 1 3 19.5V4.5A1.5 1.5 0 0 1 4.5 3Z" stroke="#0e141f" stroke-opacity="0.7" stroke-width="2"/></g><path d="M11.26 4.48L12.74 4.48L13.62 6.65L14.64 7.07L16.80 6.16L17.84 7.20L16.93 9.36L17.35 10.38L19.52 11.26L19.52 12.74L17.35 13.62L16.93 14.64L17.84 16.80L16.80 17.84L14.64 16.93L13.62 17.35L12.74 19.52L11.26 19.52L10.38 17.35L9.36 16.93L7.20 17.84L6.16 16.80L7.07 14.64L6.65 13.62L4.48 12.74L4.48 11.26L6.65 10.38L7.07 9.36L6.16 7.20L7.20 6.16L9.36 7.07L10.38 6.65ZM14.5704 12.0A2.5704000000000002 2.5704000000000002 0 1 0 9.4296 12.0A2.5704000000000002 2.5704000000000002 0 1 0 14.5704 12.0Z" fill="#000" opacity="0.3" fill-rule="evenodd" transform="translate(0 1)"/><path d="M11.26 4.48L12.74 4.48L13.62 6.65L14.64 7.07L16.80 6.16L17.84 7.20L16.93 9.36L17.35 10.38L19.52 11.26L19.52 12.74L17.35 13.62L16.93 14.64L17.84 16.80L16.80 17.84L14.64 16.93L13.62 17.35L12.74 19.52L11.26 19.52L10.38 17.35L9.36 16.93L7.20 17.84L6.16 16.80L7.07 14.64L6.65 13.62L4.48 12.74L4.48 11.26L6.65 10.38L7.07 9.36L6.16 7.20L7.20 6.16L9.36 7.07L10.38 6.65ZM14.5704 12.0A2.5704000000000002 2.5704000000000002 0 1 0 9.4296 12.0A2.5704000000000002 2.5704000000000002 0 1 0 14.5704 12.0Z" fill="#fafafa" fill-rule="evenodd"/></svg>
