<svg xmlns="http://www.w3.org/2000/svg" width="48" height="48" viewBox="0 0 128 128"><defs><filter id="sh" x="-20%" y="-20%" width="140%" height="150%"><feGaussianBlur in="SourceAlpha" stdDeviation="2.13333"/><feOffset dy="2.66667"/><feComponentTransfer><feFuncA type="linear" slope=".3"/></feComponentTransfer><feMerge><feMergeNode/><feMergeNode in="SourceGraphic"/></feMerge></filter><radialGradient id="sol"><stop offset="0" stop-opacity="0"/><stop offset="1" stop-opacity="0"/></radialGradient><linearGradient id="hl" x1="0" y1="0" x2="0" y2="1"><stop offset="0" stop-color="#fff" stop-opacity=".45"/><stop offset=".063" stop-color="#fff" stop-opacity=".2"/><stop offset=".95" stop-color="#fff" stop-opacity=".157"/><stop offset="1" stop-color="#fff" stop-opacity=".392"/></linearGradient><linearGradient id="bk" x1="0" y1="0" x2="1" y2="1"><stop offset="0" stop-color="#64baff"/><stop offset="1" stop-color="#0d52bf"/></linearGradient><linearGradient id="bks" x1="0" y1="0" x2="0" y2="1"><stop offset="0" stop-color="#0d52bf" stop-opacity="1"/><stop offset="1" stop-color="#002e99" stop-opacity="1"/></linearGradient><linearGradient id="pp" x1="0" y1="0" x2="0" y2="1"><stop offset="0" stop-color="#ffffff" stop-opacity="1"/><stop offset="1" stop-color="#e8e8e8" stop-opacity="1"/></linearGradient><linearGradient id="pps" x1="0" y1="0" x2="0" y2="1"><stop offset="0" stop-color="#000" stop-opacity="0.1"/><stop offset="1" stop-color="#000" stop-opacity="0.16"/></linearGradient><linearGradient id="ac" x1="0" y1="0" x2="0" y2="1"><stop offset="0" stop-color="#64baff" stop-opacity="1"/><stop offset="1" stop-color="#0d52bf" stop-opacity="1"/></linearGradient></defs><rect x="40" y="13.3333" width="77.3333" height="90.6667" rx="10" fill="#0d52bf"/><rect x="40" y="10.6667" width="77.3333" height="90.6667" rx="10" fill="url(#bk)"/><rect x="41.3333" y="12" width="74.6667" height="88" rx="8.66667" fill="none" stroke="url(#bks)" stroke-width="2.66667" opacity="0.2"/><rect x="44" y="14.6667" width="69.3333" height="82.6667" rx="6" fill="none" stroke="url(#hl)" stroke-width="2.66667" opacity=".9"/><g transform="translate(0,2.66667)" opacity=".16"><rect x="85.3333" y="24" width="21.3333" height="2.66667" rx="0" fill="#000" opacity=".75"/></g><rect x="85.3333" y="24" width="21.3333" height="2.66667" rx="0" fill="#fff" opacity=".75"/><g transform="translate(0,2.66667)" opacity=".16"><rect x="85.3333" y="34.6667" width="21.3333" height="2.66667" rx="0" fill="#000" opacity=".75"/></g><rect x="85.3333" y="34.6667" width="21.3333" height="2.66667" rx="0" fill="#fff" opacity=".75"/><g transform="translate(0,2.66667)" opacity=".16"><rect x="85.3333" y="42.6667" width="21.3333" height="5.33333" rx="2" fill="#000" opacity=".75"/></g><rect x="85.3333" y="42.6667" width="21.3333" height="5.33333" rx="2" fill="#fff" opacity=".75"/><g transform="translate(0,2.66667)" opacity=".16"><rect x="85.3333" y="53.3333" width="21.3333" height="5.33333" rx="2" fill="#000" opacity=".75"/></g><rect x="85.3333" y="53.3333" width="21.3333" height="5.33333" rx="2" fill="#fff" opacity=".75"/><g transform="translate(0,2.66667)" opacity=".16"><rect x="85.3333" y="64" width="21.3333" height="5.33333" rx="0" fill="#000" opacity=".75"/></g><rect x="85.3333" y="64" width="21.3333" height="5.33333" rx="0" fill="#fff" opacity=".75"/><rect x="10.6667" y="32" width="72" height="88" rx="6" fill="#c3c7cb"/><rect x="10.6667" y="29.3333" width="72" height="88" rx="6" fill="url(#pp)"/><rect x="12" y="30.6667" width="69.3333" height="85.3333" rx="4.66667" fill="none" stroke="url(#pps)" stroke-width="2.66667" opacity="1"/><rect x="14.6667" y="33.3333" width="64" height="80" rx="2" fill="none" stroke="url(#hl)" stroke-width="2.66667" opacity=".9"/><path d="M66,30 h10 a6,6 0 0 1 6,6 v10 z" fill="#d4d7da"/><rect x="21.3333" y="42.6667" width="34.6667" height="5.33333" rx="3" fill="#3689e6"/><rect x="21.3333" y="56" width="50.6667" height="2.66667" rx="0" fill="#767e86"/><rect x="21.3333" y="64" width="50.6667" height="5.33333" rx="0" fill="#767e86"/><rect x="21.3333" y="74.6667" width="45.3333" height="2.66667" rx="0" fill="#767e86"/><rect x="21.3333" y="82.6667" width="50.6667" height="5.33333" rx="2" fill="#767e86"/><rect x="21.3333" y="90.6667" width="32" height="5.33333" rx="2" fill="#767e86"/><rect x="53.3333" y="88" width="2.66667" height="10.6667" rx="0" fill="#3689e6"/></svg>
